<svg id="svg" version="1.1" xmlns="http://www.w3.org/2000/svg" xmlns:xlink="http://www.w3.org/1999/xlink" width="400" height="400" viewBox="0, 0, 400,400"><g id="svgg"><path id="path0" d="M90.770 0.417 C 90.865 0.646,103.918 27.417,119.775 59.907 L 148.607 118.981 147.373 120.241 C 146.694 120.933,145.812 121.950,145.413 122.500 L 144.688 123.500 144.677 122.287 C 144.635 117.394,137.140 119.341,135.672 124.627 C 135.488 125.291,135.336 127.971,135.335 130.583 C 135.333 135.686,135.136 136.176,134.030 133.822 C 132.313 130.170,127.683 132.046,126.188 137.000 C 125.706 138.595,125.028 145.721,125.007 149.410 C 125.000 150.614,124.975 150.641,124.164 150.272 C 123.410 149.928,123.378 149.837,123.831 149.336 C 125.778 147.185,123.209 140.857,120.829 141.941 C 119.173 142.696,119.393 148.113,121.133 149.448 C 121.947 150.072,118.320 148.316,60.361 120.024 C 27.284 103.877,0.172 90.667,0.111 90.667 C 0.050 90.667,0.000 139.867,0.000 200.000 C 0.000 260.133,0.048 309.333,0.106 309.333 C 0.165 309.333,26.152 296.678,57.856 281.210 L 115.500 253.087 116.500 254.160 C 118.328 256.120,120.479 256.818,125.833 257.188 C 130.273 257.495,130.630 257.730,128.253 258.781 C 125.601 259.954,125.388 261.064,127.204 264.230 C 128.638 266.730,132.559 268.064,141.750 269.178 C 143.003 269.330,143.667 269.563,143.667 269.852 C 143.667 270.598,143.067 270.718,142.026 270.180 C 139.297 268.769,135.167 269.959,135.167 272.157 C 135.167 274.181,139.892 275.278,141.798 273.696 C 142.186 273.374,142.341 273.515,142.656 274.468 C 143.254 276.281,146.987 279.000,148.876 279.000 C 149.536 279.000,149.438 279.777,148.667 280.667 C 148.300 281.089,148.000 281.621,148.000 281.847 C 148.000 282.074,135.162 308.563,119.472 340.713 C 103.782 372.863,90.866 399.354,90.770 399.583 C 90.630 399.916,112.605 400.000,200.000 400.000 C 287.394 400.000,309.370 399.916,309.232 399.583 C 309.137 399.354,296.221 372.858,280.529 340.702 C 264.838 308.547,252.000 282.057,252.000 281.837 C 252.000 281.616,251.700 281.089,251.333 280.667 C 250.321 279.500,250.503 279.173,252.518 278.538 C 254.594 277.884,257.333 275.556,257.333 274.446 C 257.333 273.543,257.677 273.261,258.224 273.714 C 260.111 275.281,264.833 274.168,264.833 272.157 C 264.833 269.959,260.703 268.769,257.974 270.180 C 256.933 270.718,256.333 270.598,256.333 269.852 C 256.333 269.562,256.992 269.334,258.250 269.189 C 267.074 268.169,271.366 266.707,272.808 264.230 C 274.603 261.146,274.364 259.938,271.726 258.772 C 269.354 257.723,269.731 257.490,274.317 257.176 C 278.956 256.858,281.640 256.011,283.251 254.356 L 284.500 253.072 342.151 281.203 C 373.860 296.675,399.847 309.333,399.901 309.333 C 399.956 309.333,400.000 260.117,400.000 199.964 C 400.000 112.598,399.916 90.630,399.583 90.770 C 399.354 90.866,372.242 104.094,339.333 120.165 C 281.909 148.210,278.036 150.086,278.867 149.448 C 280.607 148.113,280.827 142.696,279.171 141.941 C 276.824 140.872,274.241 147.205,276.159 149.325 C 276.625 149.840,276.599 149.924,275.869 150.257 L 275.066 150.622 274.852 146.061 C 274.423 136.930,273.496 134.172,270.318 132.566 C 267.932 131.359,266.931 131.650,265.966 133.832 C 264.894 136.256,264.667 135.689,264.665 130.583 C 264.664 127.971,264.512 125.291,264.328 124.627 C 262.860 119.341,255.365 117.394,255.323 122.287 L 255.312 123.500 254.587 122.500 C 254.188 121.950,253.308 120.935,252.631 120.244 L 251.400 118.988 280.230 59.911 C 296.086 27.418,309.137 0.646,309.232 0.417 C 309.370 0.084,287.394 -0.000,200.000 -0.000 C 112.606 -0.000,90.630 0.084,90.770 0.417 M292.839 14.750 C 284.251 32.465,245.339 112.105,245.209 112.236 C 245.126 112.319,244.664 112.128,244.182 111.813 C 242.035 110.406,240.804 112.735,241.949 116.036 C 242.733 118.293,242.386 119.420,241.439 117.694 C 237.058 109.705,234.653 107.333,230.930 107.333 C 228.405 107.333,227.924 107.779,227.874 110.166 C 227.811 113.155,227.244 112.844,225.215 108.706 C 222.267 102.694,220.462 101.000,217.003 101.000 C 213.399 101.000,212.059 102.424,213.055 105.195 L 213.552 106.578 211.463 105.600 C 206.154 103.116,202.039 104.695,202.007 109.228 C 201.987 112.186,204.901 115.180,208.449 115.846 C 209.643 116.070,209.669 116.102,209.023 116.555 C 208.419 116.978,208.234 116.947,207.312 116.265 C 205.768 115.123,201.568 115.137,200.637 116.287 L 200.000 117.074 199.363 116.287 C 198.432 115.138,194.230 115.125,192.687 116.266 C 191.766 116.947,191.581 116.978,190.977 116.555 C 190.331 116.102,190.357 116.070,191.551 115.846 C 195.099 115.180,198.013 112.186,197.993 109.228 C 197.961 104.695,193.846 103.116,188.537 105.600 L 186.448 106.578 186.945 105.195 C 187.946 102.413,186.602 101.000,182.957 101.000 C 179.546 101.000,177.713 102.734,174.764 108.748 C 172.894 112.563,172.209 113.093,172.110 110.804 C 172.079 110.087,172.042 109.248,172.027 108.940 C 171.974 107.853,171.031 107.333,169.110 107.333 C 165.637 107.333,163.678 109.020,160.038 115.146 C 157.763 118.975,156.896 119.363,158.051 116.036 C 159.196 112.735,157.965 110.406,155.818 111.813 C 155.336 112.128,154.873 112.317,154.788 112.232 C 154.655 112.099,116.062 33.107,107.161 14.750 L 104.050 8.333 200.000 8.333 L 295.950 8.333 292.839 14.750 M63.667 130.999 C 92.358 144.979,115.942 156.515,116.075 156.633 C 116.207 156.752,116.196 157.296,116.049 157.841 L 115.783 158.833 115.352 158.000 C 114.157 155.686,112.555 155.474,110.510 157.360 C 107.144 160.462,107.443 162.965,112.202 171.560 C 113.547 173.989,113.096 174.198,110.310 172.438 C 108.303 171.171,105.987 173.454,105.736 176.947 C 105.566 179.316,106.309 181.616,109.171 187.583 L 111.288 192.000 110.211 192.000 C 109.191 192.000,109.141 191.942,109.261 190.911 C 109.469 189.128,106.464 185.667,104.707 185.667 C 102.179 185.667,103.503 190.729,106.442 192.302 C 107.250 192.735,107.252 192.748,106.617 193.383 C 104.941 195.059,104.922 196.955,106.524 202.557 L 106.731 203.281 105.359 202.603 C 102.784 201.329,101.000 203.106,101.000 206.946 C 101.000 210.191,102.690 212.240,107.898 215.308 C 111.432 217.390,112.025 218.558,109.329 218.127 C 106.666 217.702,105.667 218.629,105.667 221.526 C 105.667 224.740,107.311 226.777,113.761 231.558 L 118.088 234.764 117.294 235.364 C 116.506 235.960,116.496 235.956,115.933 234.862 C 114.955 232.962,110.981 231.452,109.311 232.345 C 107.187 233.482,110.733 237.334,113.903 237.333 C 114.813 237.333,114.831 237.370,114.718 239.002 C 114.633 240.229,114.791 241.035,115.317 242.043 C 115.709 242.797,115.987 243.450,115.932 243.494 C 115.878 243.538,92.358 255.014,63.667 268.997 C 34.975 282.980,10.787 294.778,9.917 295.216 L 8.333 296.011 8.333 200.000 L 8.333 103.989 9.917 104.784 C 10.787 105.222,34.975 117.018,63.667 130.999 M391.584 247.938 L 391.500 295.876 338.000 269.777 C 308.575 255.423,284.373 243.633,284.218 243.578 C 284.062 243.523,284.264 242.847,284.667 242.075 C 285.208 241.035,285.368 240.239,285.282 239.002 C 285.169 237.370,285.187 237.333,286.097 237.333 C 289.267 237.334,292.813 233.482,290.689 232.345 C 289.019 231.452,285.045 232.962,284.067 234.862 C 283.503 235.959,283.496 235.961,282.700 235.360 L 281.901 234.756 286.367 231.437 C 292.796 226.660,294.333 224.747,294.333 221.526 C 294.333 218.633,293.489 217.837,290.655 218.057 C 288.414 218.230,288.687 217.523,291.559 215.708 C 297.512 211.947,299.000 210.209,298.999 207.018 C 298.998 203.276,297.140 201.366,294.682 202.582 L 293.269 203.281 293.476 202.557 C 295.078 196.955,295.059 195.059,293.383 193.383 C 292.748 192.748,292.750 192.735,293.558 192.302 C 296.497 190.729,297.821 185.667,295.293 185.667 C 293.536 185.667,290.531 189.128,290.739 190.911 C 290.859 191.942,290.809 192.000,289.790 192.000 L 288.715 192.000 290.831 187.567 C 294.668 179.531,295.147 176.772,293.230 173.756 C 291.891 171.652,290.965 171.557,288.269 173.251 C 286.910 174.106,286.735 173.479,287.798 171.560 C 292.557 162.965,292.856 160.462,289.490 157.360 C 287.421 155.452,285.974 155.689,284.436 158.188 C 284.054 158.809,284.037 158.805,283.970 158.083 C 283.931 157.671,283.885 157.176,283.867 156.983 C 283.848 156.790,308.058 144.818,337.667 130.379 L 391.500 104.125 391.584 152.062 C 391.631 178.428,391.631 221.572,391.584 247.938 M200.820 118.583 C 201.559 119.443,201.776 119.500,204.303 119.500 C 206.710 119.500,206.999 119.566,206.999 120.121 C 207.004 123.868,210.987 125.217,216.578 123.366 C 221.859 121.617,222.850 121.854,221.292 124.496 C 219.939 126.788,221.200 130.300,223.763 131.382 C 225.378 132.063,228.632 131.888,234.069 130.826 L 238.972 129.868 240.236 130.601 C 240.931 131.004,241.912 131.516,242.416 131.740 C 243.110 132.047,243.282 132.304,243.125 132.798 C 241.980 136.405,243.967 138.902,248.727 139.840 C 253.961 140.871,254.630 141.054,255.053 141.564 C 255.426 142.014,255.369 142.170,254.662 142.622 C 252.537 143.984,251.667 145.201,251.667 146.811 C 251.667 150.953,253.514 152.379,262.333 155.047 L 266.955 156.445 267.808 158.013 C 268.277 158.875,268.893 159.773,269.175 160.007 C 269.633 160.387,269.617 160.509,269.027 161.138 C 266.002 164.358,266.891 166.518,273.616 172.289 C 276.216 174.520,276.210 175.089,273.584 175.372 C 271.369 175.611,270.786 176.006,269.954 177.833 C 268.452 181.137,269.454 183.320,275.249 189.372 C 279.142 193.437,279.203 193.525,279.280 195.167 C 279.323 196.083,279.428 197.067,279.514 197.352 C 279.620 197.704,279.263 198.050,278.396 198.432 C 274.929 199.962,274.491 202.944,276.938 208.333 C 279.121 213.138,278.984 214.172,276.317 213.025 C 274.204 212.116,273.059 212.314,271.314 213.890 C 268.819 216.144,268.807 217.873,271.225 226.070 L 272.770 231.306 271.885 233.278 C 271.398 234.363,271.000 235.381,271.000 235.542 C 271.001 235.702,270.213 235.785,269.250 235.725 C 265.591 235.499,264.329 237.461,263.753 244.271 C 263.357 248.963,262.895 249.691,261.486 247.845 C 259.745 245.562,257.612 245.093,254.987 246.417 C 252.801 247.519,251.855 249.648,250.506 256.493 C 249.505 261.575,249.347 262.059,248.461 262.743 C 247.932 263.151,247.105 263.871,246.623 264.344 C 245.769 265.180,245.726 265.187,245.007 264.605 C 241.911 262.098,238.921 263.445,235.684 268.805 C 233.105 273.075,231.938 273.703,231.578 271.016 C 231.222 268.364,229.530 267.006,226.504 266.946 C 224.305 266.901,221.749 268.873,218.227 273.333 L 217.305 274.500 215.069 272.079 L 212.833 269.659 208.045 269.663 C 204.358 269.666,202.885 269.535,201.643 269.094 C 200.214 268.586,199.867 268.574,198.598 268.984 C 197.730 269.264,195.198 269.493,192.167 269.565 L 187.167 269.683 184.931 272.091 L 182.695 274.500 181.773 273.333 C 180.081 271.191,177.225 268.321,176.083 267.615 C 172.971 265.692,168.338 267.871,168.335 271.260 C 168.332 273.837,166.784 272.891,164.316 268.805 C 161.079 263.445,158.089 262.098,154.993 264.605 C 154.274 265.187,154.231 265.180,153.377 264.344 C 152.895 263.871,152.068 263.151,151.539 262.743 C 150.653 262.059,150.495 261.575,149.494 256.493 C 148.145 249.648,147.199 247.519,145.013 246.417 C 142.388 245.093,140.255 245.562,138.514 247.845 C 137.136 249.652,136.653 248.950,136.285 244.610 C 135.668 237.310,134.431 235.406,130.511 235.718 C 129.218 235.821,128.967 235.740,128.813 235.169 C 128.714 234.801,128.315 233.788,127.927 232.918 L 127.221 231.337 128.765 226.085 C 131.176 217.885,131.167 216.132,128.701 213.904 C 126.936 212.310,125.801 212.113,123.663 213.033 C 120.861 214.239,120.770 213.393,123.140 208.167 C 125.503 202.954,125.028 199.943,121.604 198.432 C 120.737 198.050,120.380 197.704,120.486 197.352 C 120.572 197.067,120.678 196.085,120.721 195.170 C 120.798 193.534,120.865 193.438,124.772 189.337 C 130.686 183.129,131.615 181.020,129.917 177.655 C 129.052 175.941,128.071 175.345,126.103 175.338 C 123.453 175.329,123.853 174.086,127.390 171.333 C 132.844 167.089,133.857 164.208,130.973 161.138 C 130.383 160.509,130.367 160.387,130.825 160.007 C 131.107 159.773,131.723 158.875,132.192 158.013 C 133.038 156.459,133.075 156.436,136.273 155.516 C 146.032 152.707,148.333 151.046,148.333 146.811 C 148.333 145.203,147.492 144.023,145.333 142.607 C 144.045 141.761,145.020 141.067,148.362 140.448 C 155.740 139.082,156.833 138.324,156.833 134.569 C 156.833 132.240,156.886 132.060,157.667 131.709 C 158.125 131.502,159.069 131.004,159.764 130.601 L 161.028 129.868 165.931 130.826 C 171.368 131.888,174.622 132.063,176.237 131.382 C 178.800 130.300,180.061 126.788,178.708 124.496 C 177.150 121.855,178.094 121.624,183.364 123.361 C 189.004 125.220,192.996 123.877,193.001 120.121 C 193.001 119.566,193.290 119.500,195.700 119.500 C 198.230 119.500,198.445 119.444,199.116 118.604 C 200.007 117.492,199.883 117.493,200.820 118.583 M198.779 137.584 C 195.083 143.130,194.868 145.116,196.022 163.100 C 197.436 185.147,196.978 190.622,192.666 203.177 C 191.214 207.404,187.163 215.958,186.491 216.216 C 185.834 216.469,181.633 215.367,180.439 214.629 C 175.273 211.436,177.729 203.000,183.824 203.000 L 185.341 203.000 185.160 201.750 C 185.061 201.063,184.235 194.301,183.326 186.725 C 181.350 170.273,180.630 167.149,177.477 161.377 C 174.177 155.335,164.559 145.667,161.849 145.667 C 161.749 145.667,161.667 166.442,161.667 191.833 L 161.667 238.000 172.320 238.000 L 182.974 238.000 183.332 239.417 C 185.125 246.520,188.379 252.215,193.284 256.833 C 194.842 258.300,196.980 260.346,198.034 261.380 L 199.952 263.260 202.707 260.713 C 211.950 252.170,214.105 248.776,216.868 238.417 C 216.954 238.094,219.396 238.000,227.656 238.000 L 238.333 238.000 238.333 191.833 C 238.333 166.442,238.251 145.667,238.151 145.667 C 235.456 145.667,225.805 155.369,222.523 161.377 C 219.370 167.149,218.650 170.273,216.674 186.725 C 215.765 194.301,214.939 201.063,214.840 201.750 L 214.659 203.000 216.176 203.000 C 222.271 203.000,224.727 211.436,219.561 214.629 C 218.367 215.367,214.166 216.469,213.509 216.216 C 212.837 215.958,208.786 207.404,207.334 203.177 C 203.013 190.594,202.539 184.882,203.987 162.833 C 204.994 147.492,204.852 144.365,202.973 140.573 C 202.176 138.965,200.249 136.001,200.000 136.001 C 199.908 136.001,199.359 136.713,198.779 137.584 M171.349 163.339 C 174.533 168.653,175.276 171.655,177.017 186.231 C 178.342 197.315,178.376 197.837,177.797 198.161 C 176.094 199.113,173.357 202.150,172.521 204.013 L 171.629 206.000 169.815 206.000 L 168.000 206.000 168.014 182.417 L 168.027 158.833 169.037 160.000 C 169.593 160.642,170.633 162.144,171.349 163.339 M232.000 182.500 L 232.000 206.000 230.185 206.000 L 228.371 206.000 227.479 204.013 C 226.641 202.146,223.907 199.115,222.196 198.156 C 221.122 197.554,224.087 174.277,225.881 169.229 C 227.125 165.727,231.047 159.000,231.844 159.000 C 231.930 159.000,232.000 169.575,232.000 182.500 M127.667 159.964 C 127.667 160.128,127.442 160.348,127.167 160.454 C 126.659 160.649,126.484 160.294,126.889 159.889 C 127.207 159.570,127.667 159.615,127.667 159.964 M273.257 160.271 C 273.338 160.515,273.186 160.589,272.861 160.465 C 272.571 160.353,272.333 160.116,272.333 159.937 C 272.333 159.498,273.091 159.773,273.257 160.271 M117.207 199.710 C 116.670 200.478,116.667 200.475,116.667 199.169 C 116.667 197.959,116.709 197.899,117.207 198.398 C 117.706 198.896,117.706 198.998,117.207 199.710 M283.333 199.241 C 283.333 200.469,283.328 200.474,282.804 199.727 C 282.385 199.128,282.359 198.870,282.679 198.486 C 283.263 197.782,283.333 197.863,283.333 199.241 M201.163 205.241 C 201.910 207.441,205.016 214.168,206.915 217.699 C 206.973 217.808,206.059 218.372,204.882 218.951 C 203.705 219.530,202.122 220.606,201.365 221.342 L 199.987 222.679 198.577 221.321 C 197.801 220.574,196.224 219.499,195.073 218.931 C 193.921 218.363,193.027 217.808,193.085 217.699 C 194.984 214.168,198.090 207.441,198.837 205.241 C 200.043 201.688,199.957 201.688,201.163 205.241 M172.310 214.181 C 173.818 217.820,177.519 220.891,181.364 221.695 C 183.748 222.193,183.736 222.172,183.170 224.847 C 182.899 226.123,182.676 227.942,182.672 228.889 C 182.662 231.856,183.178 231.667,175.131 231.667 L 168.000 231.667 168.000 222.000 L 168.000 212.333 169.772 212.333 L 171.544 212.333 172.310 214.181 M232.000 222.000 L 232.000 231.667 224.869 231.667 C 216.847 231.667,217.333 231.839,217.333 228.995 C 217.333 228.105,217.105 226.291,216.826 224.963 C 216.242 222.188,216.238 222.196,218.636 221.695 C 222.481 220.891,226.182 217.820,227.690 214.181 L 228.456 212.333 230.228 212.333 L 232.000 212.333 232.000 222.000 M192.931 224.890 C 194.577 225.835,196.192 227.891,196.503 229.436 C 196.620 230.021,196.790 230.762,196.881 231.083 C 197.031 231.617,196.686 231.667,192.856 231.667 C 187.976 231.667,188.318 232.085,189.177 227.162 C 189.880 223.132,189.873 223.136,192.931 224.890 M210.564 225.692 C 210.784 226.684,211.065 228.434,211.188 229.581 L 211.411 231.667 207.214 231.667 L 203.017 231.667 203.220 230.583 C 203.761 227.706,205.331 225.615,207.820 224.456 C 209.956 223.461,210.081 223.518,210.564 225.692 M127.133 238.288 C 127.115 238.496,127.077 238.929,127.049 239.250 C 127.012 239.670,126.812 239.528,126.332 238.742 C 125.494 237.368,125.500 237.293,126.417 237.632 C 126.829 237.785,127.152 238.080,127.133 238.288 M273.686 238.712 C 273.310 239.329,273.002 239.658,273.001 239.444 C 273.001 239.230,272.909 238.818,272.798 238.529 C 272.663 238.177,272.855 237.907,273.382 237.708 C 274.446 237.306,274.478 237.413,273.686 238.712 M197.000 244.667 C 197.000 248.613,196.872 251.333,196.686 251.333 C 195.745 251.333,191.897 245.248,190.516 241.576 C 189.132 237.896,189.050 238.000,193.333 238.000 L 197.000 238.000 197.000 244.667 M210.333 238.659 C 210.333 241.158,204.698 251.333,203.314 251.333 C 203.128 251.333,203.000 248.613,203.000 244.667 L 203.000 238.000 206.667 238.000 C 210.097 238.000,210.333 238.042,210.333 238.659 M154.000 268.678 C 154.000 269.247,153.895 269.301,153.352 269.010 C 152.312 268.453,152.220 268.000,153.147 268.000 C 153.783 268.000,154.000 268.173,154.000 268.678 M247.501 268.332 C 246.997 269.147,246.000 269.378,246.000 268.678 C 246.000 268.173,246.217 268.000,246.853 268.000 C 247.334 268.000,247.617 268.145,247.501 268.332 M204.667 277.148 C 204.667 277.229,203.845 278.073,202.840 279.023 C 200.632 281.111,200.665 281.192,203.829 281.489 C 205.206 281.618,206.333 281.878,206.333 282.067 C 206.333 282.404,202.540 282.163,201.359 281.751 C 200.785 281.552,201.738 282.656,205.923 287.043 C 207.432 288.624,208.660 290.124,208.652 290.376 C 208.644 290.628,206.709 288.810,204.351 286.336 C 200.116 281.893,200.056 281.846,199.384 282.454 C 198.670 283.100,198.473 282.123,199.110 281.092 C 199.239 280.884,199.192 280.619,199.005 280.503 C 198.819 280.388,198.667 280.130,198.667 279.929 C 198.667 279.728,198.963 279.831,199.325 280.159 C 199.965 280.738,200.039 280.703,202.010 278.877 C 203.792 277.228,204.667 276.658,204.667 277.148 M165.333 284.373 C 165.333 284.578,164.883 285.258,164.333 285.884 C 161.768 288.806,164.933 291.910,170.146 291.585 L 172.911 291.413 172.464 292.896 L 172.018 294.379 174.505 295.513 C 179.573 297.822,184.678 298.460,188.228 297.228 L 189.955 296.628 190.478 294.331 C 190.765 293.068,191.000 291.802,191.000 291.518 C 191.000 291.233,191.145 291.000,191.323 291.000 C 191.500 291.000,191.600 290.813,191.544 290.583 C 191.488 290.354,191.506 290.279,191.582 290.417 C 191.659 290.554,191.972 290.666,192.278 290.666 C 192.708 290.666,192.833 290.981,192.833 292.070 C 192.833 295.478,198.271 293.538,199.491 289.695 C 199.612 289.313,199.841 289.000,200.000 289.000 C 200.159 289.000,200.388 289.313,200.509 289.695 C 201.693 293.426,207.005 295.428,207.270 292.242 C 207.383 290.882,207.424 290.847,208.331 291.332 C 208.738 291.550,209.084 292.327,209.332 293.582 C 209.928 296.587,209.929 296.588,211.766 297.227 C 215.392 298.488,220.948 297.715,225.775 295.279 C 227.837 294.238,227.949 293.970,227.168 291.952 C 226.978 291.462,227.255 291.423,229.788 291.581 C 235.035 291.908,238.185 288.918,235.680 285.987 C 233.640 283.601,234.539 283.431,238.803 285.398 C 240.470 286.167,242.583 286.965,243.500 287.171 L 245.167 287.545 270.531 339.523 L 295.895 391.500 247.948 391.584 C 221.576 391.631,178.424 391.631,152.053 391.584 L 104.106 391.500 129.470 339.522 L 154.833 287.544 156.500 287.171 C 157.417 286.966,159.517 286.171,161.167 285.404 C 164.225 283.982,165.333 283.708,165.333 284.373 " stroke="none" fill="#f4d304" fill-rule="evenodd"></path><path id="path1" d="M105.136 10.083 C 106.237 12.511,154.703 111.799,154.873 111.978 C 154.949 112.057,155.189 111.945,155.406 111.728 C 157.437 109.696,159.433 112.467,158.394 115.874 C 157.531 118.700,157.849 118.552,159.738 115.248 C 162.891 109.736,165.279 107.408,168.109 107.089 C 171.248 106.735,172.333 107.532,172.333 110.190 C 172.333 112.802,172.761 112.463,174.789 108.244 C 177.410 102.793,179.709 100.667,182.983 100.667 C 186.213 100.667,188.155 102.454,187.370 104.706 C 187.166 105.289,187.000 105.801,187.000 105.844 C 187.000 105.887,187.938 105.541,189.083 105.074 C 196.790 101.935,201.773 108.662,195.725 114.040 L 194.167 115.425 195.843 115.211 C 197.161 115.042,197.798 115.139,198.821 115.661 C 200.058 116.291,200.156 116.295,200.760 115.749 C 201.244 115.311,201.917 115.187,203.555 115.232 L 205.714 115.292 204.229 113.985 C 198.107 108.597,203.237 101.985,211.083 105.149 C 212.137 105.575,213.000 105.887,213.000 105.844 C 213.000 105.801,212.834 105.289,212.630 104.706 C 211.840 102.439,213.788 100.667,217.068 100.667 C 220.380 100.667,222.799 102.996,225.475 108.762 C 227.192 112.460,227.667 112.770,227.667 110.190 C 227.667 107.532,228.752 106.735,231.891 107.089 C 234.739 107.410,236.925 109.558,240.360 115.410 C 242.377 118.847,242.534 118.913,241.629 115.946 C 240.568 112.470,242.537 109.670,244.594 111.728 C 244.811 111.945,245.051 112.057,245.127 111.978 C 245.291 111.806,294.512 10.994,295.202 9.417 L 295.676 8.333 200.009 8.333 L 104.342 8.333 105.136 10.083 M8.333 199.985 L 8.333 295.676 9.417 295.202 C 10.566 294.700,113.653 244.388,114.897 243.722 L 115.628 243.331 114.949 241.796 C 114.521 240.829,114.316 239.781,114.394 238.964 C 114.499 237.858,114.422 237.667,113.868 237.667 C 111.308 237.667,107.936 234.767,108.529 233.074 C 109.294 230.890,115.024 232.062,116.101 234.623 C 116.462 235.483,116.586 235.550,117.102 235.172 C 117.632 234.786,117.308 234.460,113.936 231.983 C 107.214 227.045,105.518 224.911,105.537 221.418 C 105.553 218.448,106.428 217.519,108.917 217.830 C 111.268 218.123,111.186 217.620,108.630 216.069 C 104.709 213.690,102.665 211.973,101.653 210.209 C 99.215 205.958,101.829 200.458,105.384 202.360 C 106.340 202.872,106.412 202.634,105.806 200.969 C 104.973 198.680,105.013 195.427,105.892 193.939 L 106.618 192.711 105.855 192.212 C 102.908 190.280,102.093 185.333,104.722 185.333 C 106.416 185.333,109.207 188.298,109.560 190.470 C 109.673 191.166,109.945 191.667,110.210 191.667 C 110.884 191.667,110.852 191.573,108.513 186.669 C 105.117 179.551,104.700 176.875,106.504 173.796 C 107.905 171.406,109.211 171.264,111.917 173.209 C 113.185 174.120,112.865 172.922,111.030 169.880 C 107.574 164.151,107.210 160.682,109.762 157.776 C 111.748 155.513,113.646 155.339,115.238 157.271 C 115.922 158.101,115.977 158.116,115.988 157.475 C 115.998 156.884,108.248 153.005,62.417 130.665 C 32.946 116.301,8.721 104.490,8.583 104.421 C 8.446 104.351,8.333 147.355,8.333 199.985 M337.750 130.560 C 286.937 155.350,284.000 156.830,284.006 157.641 L 284.011 158.500 284.688 157.444 C 286.047 155.322,288.197 155.451,290.238 157.776 C 292.790 160.682,292.426 164.151,288.970 169.880 C 287.135 172.922,286.815 174.120,288.083 173.209 C 290.789 171.264,292.095 171.406,293.496 173.796 C 295.299 176.873,294.904 179.415,291.506 186.605 C 289.140 191.610,289.121 191.667,289.790 191.667 C 290.055 191.667,290.327 191.166,290.440 190.470 C 290.793 188.298,293.584 185.333,295.278 185.333 C 297.907 185.333,297.092 190.280,294.145 192.212 L 293.382 192.711 294.093 193.917 C 294.964 195.393,295.013 198.732,294.196 200.969 C 293.588 202.634,293.660 202.872,294.616 202.360 C 298.171 200.458,300.785 205.958,298.347 210.209 C 297.335 211.973,295.291 213.690,291.370 216.069 C 288.814 217.620,288.732 218.123,291.083 217.830 C 293.572 217.519,294.447 218.448,294.463 221.418 C 294.482 224.911,292.786 227.045,286.064 231.983 C 282.692 234.460,282.368 234.786,282.898 235.172 C 283.414 235.550,283.538 235.483,283.899 234.623 C 284.976 232.062,290.706 230.890,291.471 233.074 C 292.064 234.767,288.692 237.667,286.132 237.667 C 285.578 237.667,285.501 237.858,285.606 238.964 C 285.685 239.787,285.477 240.832,285.038 241.825 L 284.346 243.389 291.756 247.001 C 295.832 248.987,319.942 260.749,345.333 273.138 L 391.500 295.664 391.584 247.832 C 391.631 221.524,391.631 178.476,391.584 152.168 L 391.500 104.336 337.750 130.560 M198.895 119.100 C 198.138 119.688,197.512 119.830,195.661 119.831 C 193.492 119.833,193.354 119.879,193.157 120.667 C 192.132 124.755,189.404 125.497,182.873 123.463 C 178.162 121.996,177.629 122.081,178.817 124.108 C 179.942 126.029,179.906 127.492,178.686 129.416 C 176.805 132.382,174.042 132.732,165.758 131.055 L 161.016 130.094 159.846 130.890 C 159.202 131.327,158.345 131.807,157.941 131.957 C 157.289 132.198,157.217 132.436,157.293 134.086 C 157.478 138.078,155.593 139.478,148.446 140.656 C 145.581 141.129,144.467 141.793,145.477 142.428 C 147.909 143.959,148.500 144.866,148.495 147.059 C 148.485 151.165,146.659 152.571,137.766 155.321 C 133.418 156.665,132.999 156.865,132.624 157.770 C 132.399 158.312,131.868 159.168,131.444 159.672 C 130.754 160.492,130.727 160.636,131.191 161.021 C 132.615 162.202,133.117 165.162,132.196 166.944 C 131.733 167.838,130.277 169.255,126.547 172.438 C 124.243 174.403,124.135 175.000,126.083 175.001 C 127.995 175.003,129.553 176.010,130.345 177.757 C 131.888 181.155,130.886 183.355,125.044 189.402 L 121.086 193.500 120.950 195.667 L 120.813 197.833 122.156 198.500 C 125.475 200.148,125.750 202.819,123.202 208.667 C 122.364 210.592,121.675 212.447,121.672 212.789 C 121.666 213.457,121.730 213.450,124.209 212.538 C 126.141 211.827,127.569 212.292,129.334 214.206 L 130.743 215.735 130.584 218.784 C 130.463 221.113,130.099 222.874,129.046 226.234 C 127.457 231.306,127.444 231.428,128.333 233.087 C 128.700 233.771,129.000 234.594,129.000 234.915 C 129.000 235.404,129.259 235.484,130.583 235.403 C 134.331 235.172,135.845 237.222,136.356 243.223 C 136.542 245.392,136.850 247.540,137.043 247.997 L 137.392 248.828 138.613 247.444 C 140.594 245.198,141.649 244.913,144.450 245.868 C 147.269 246.828,148.547 249.550,150.010 257.701 L 150.764 261.901 152.541 263.277 L 154.319 264.652 155.526 263.941 C 158.987 261.899,161.069 263.170,165.445 270.000 C 167.155 272.668,167.834 272.914,168.096 270.961 C 168.560 267.507,172.478 265.597,175.833 267.189 C 176.885 267.688,180.340 271.059,181.954 273.160 L 182.717 274.154 184.942 271.744 L 187.167 269.335 192.167 269.222 C 194.920 269.159,197.870 268.911,198.732 268.669 C 200.095 268.286,200.485 268.301,201.743 268.781 C 202.853 269.205,204.311 269.331,208.011 269.325 L 212.833 269.316 215.052 271.742 L 217.271 274.167 218.045 273.167 C 219.472 271.323,222.155 268.577,223.467 267.617 C 226.664 265.279,231.393 267.154,231.904 270.961 C 232.166 272.914,232.845 272.668,234.555 270.000 C 238.934 263.166,241.013 261.898,244.481 263.945 L 245.694 264.660 247.430 263.290 L 249.167 261.919 250.245 256.443 C 251.818 248.462,252.911 246.524,256.353 245.626 C 258.446 245.079,259.580 245.457,261.225 247.248 L 262.630 248.779 262.968 247.973 C 263.155 247.529,263.458 245.392,263.644 243.223 C 264.155 237.222,265.669 235.172,269.417 235.403 C 270.741 235.484,271.000 235.404,271.000 234.915 C 271.000 234.594,271.300 233.771,271.667 233.087 C 272.554 231.432,272.542 231.314,270.979 226.234 C 268.694 218.805,268.673 216.213,270.880 213.953 C 272.514 212.279,273.957 211.863,275.791 212.538 C 278.270 213.450,278.334 213.457,278.328 212.789 C 278.325 212.447,277.636 210.592,276.798 208.667 C 274.250 202.819,274.525 200.148,277.844 198.500 L 279.187 197.833 279.050 195.667 L 278.914 193.500 274.956 189.402 C 269.114 183.355,268.112 181.155,269.655 177.757 C 270.447 176.010,272.005 175.003,273.917 175.001 C 275.865 175.000,275.757 174.403,273.453 172.438 C 267.967 167.756,267.243 166.842,267.274 164.633 C 267.292 163.297,267.960 161.725,268.809 161.021 C 269.273 160.636,269.246 160.492,268.556 159.672 C 268.132 159.168,267.603 158.318,267.382 157.784 C 267.012 156.891,266.537 156.670,261.573 155.081 C 252.991 152.332,251.550 151.182,251.517 147.058 C 251.499 144.864,252.084 143.963,254.523 142.428 C 255.533 141.793,254.419 141.129,251.554 140.656 C 244.407 139.478,242.522 138.078,242.707 134.086 C 242.783 132.436,242.711 132.198,242.059 131.957 C 241.655 131.807,240.798 131.327,240.154 130.890 L 238.984 130.094 234.242 131.055 C 225.958 132.732,223.195 132.382,221.314 129.416 C 220.099 127.500,220.058 126.029,221.167 124.135 C 222.342 122.131,221.689 122.030,217.022 123.493 C 210.621 125.500,207.863 124.734,206.843 120.667 C 206.646 119.879,206.508 119.833,204.342 119.831 C 202.492 119.830,201.856 119.685,201.039 119.081 C 199.844 118.198,200.057 118.197,198.895 119.100 M201.596 137.767 C 205.050 142.860,205.404 146.486,204.145 163.833 C 202.485 186.710,203.926 196.634,211.050 211.369 L 213.403 216.237 215.575 215.782 C 219.606 214.937,221.677 213.232,222.162 210.358 C 222.798 206.595,219.204 202.552,215.681 203.069 C 214.368 203.262,214.325 204.279,216.331 187.553 C 218.693 167.857,219.774 164.157,225.345 156.695 C 228.672 152.240,236.599 145.333,238.386 145.333 C 238.542 145.333,238.631 166.221,238.584 191.750 L 238.500 238.167 227.833 238.257 L 217.167 238.347 216.412 241.090 C 214.759 247.102,211.227 252.953,206.710 257.163 C 205.331 258.448,203.257 260.430,202.102 261.567 L 200.000 263.633 197.898 261.567 C 196.743 260.430,194.669 258.448,193.290 257.163 C 188.773 252.953,185.241 247.102,183.588 241.090 L 182.833 238.347 172.167 238.257 L 161.500 238.167 161.416 191.750 C 161.367 165.376,161.457 145.333,161.623 145.333 C 163.762 145.333,172.542 153.371,175.824 158.333 C 180.591 165.543,181.383 168.490,183.663 187.500 C 185.676 204.285,185.632 203.262,184.319 203.069 C 180.796 202.552,177.202 206.595,177.838 210.358 C 178.323 213.232,180.394 214.937,184.425 215.782 L 186.597 216.237 188.950 211.369 C 196.074 196.634,197.515 186.710,195.855 163.833 C 194.907 150.774,194.963 145.431,196.079 142.351 C 196.864 140.185,199.515 135.667,200.000 135.667 C 200.095 135.667,200.813 136.612,201.596 137.767 M168.000 182.647 L 168.000 206.000 169.797 206.000 C 171.469 206.000,171.610 205.938,171.819 205.106 C 172.347 203.000,175.347 199.292,177.493 198.091 C 178.344 197.615,176.133 177.148,174.640 171.673 C 173.547 167.667,169.780 160.394,168.335 159.501 C 168.112 159.363,168.000 167.088,168.000 182.647 M230.493 160.917 C 227.069 165.512,225.036 171.310,224.036 179.333 C 221.898 196.476,221.799 197.694,222.511 198.091 C 224.697 199.310,228.333 204.028,228.333 205.646 C 228.333 205.853,229.094 206.000,230.167 206.000 L 232.000 206.000 232.000 182.667 C 232.000 169.833,231.926 159.333,231.837 159.333 C 231.747 159.333,231.142 160.046,230.493 160.917 M198.724 206.146 C 198.114 207.876,196.656 211.205,195.484 213.545 C 194.312 215.884,193.387 217.819,193.427 217.845 C 193.467 217.871,194.210 218.228,195.077 218.639 C 195.944 219.050,197.407 220.063,198.327 220.891 L 200.000 222.395 201.678 220.886 C 202.602 220.056,204.105 219.039,205.019 218.626 C 205.933 218.213,206.640 217.791,206.590 217.687 C 206.541 217.584,205.504 215.475,204.287 213.000 C 203.070 210.525,201.645 207.263,201.121 205.751 C 199.946 202.366,200.064 202.347,198.724 206.146 M168.000 222.167 L 168.000 231.667 175.167 231.667 L 182.333 231.667 182.335 230.083 C 182.337 228.685,182.513 227.362,183.219 223.459 C 183.404 222.436,183.376 222.410,181.620 221.996 C 177.092 220.929,173.376 217.815,171.980 213.917 C 171.540 212.686,171.506 212.667,169.766 212.667 L 168.000 212.667 168.000 222.167 M227.700 214.525 C 226.119 218.176,222.565 221.028,218.380 222.002 C 216.623 222.410,216.596 222.435,216.781 223.459 C 217.487 227.362,217.663 228.685,217.665 230.083 L 217.667 231.667 224.833 231.667 L 232.000 231.667 232.000 222.167 L 232.000 212.667 230.250 212.672 L 228.500 212.678 227.700 214.525 M189.874 224.583 C 189.502 225.858,189.000 229.193,189.000 230.395 L 189.000 231.667 192.833 231.667 C 197.269 231.667,197.329 231.604,195.878 228.486 C 194.526 225.583,190.372 222.883,189.874 224.583 M208.167 224.463 C 205.787 225.502,203.346 228.764,203.337 230.917 C 203.333 231.651,203.413 231.667,207.167 231.667 L 211.000 231.667 211.000 230.395 C 211.000 229.193,210.498 225.858,210.126 224.583 C 209.925 223.896,209.522 223.871,208.167 224.463 M190.222 240.081 C 191.157 243.232,195.623 251.000,196.499 251.000 C 196.591 251.000,196.667 248.150,196.667 244.667 L 196.667 238.333 193.185 238.333 L 189.703 238.333 190.222 240.081 M203.333 244.667 C 203.333 248.150,203.409 251.000,203.501 251.000 C 204.377 251.000,208.843 243.232,209.778 240.081 L 210.297 238.333 206.815 238.333 L 203.333 238.333 203.333 244.667 M162.638 285.046 C 161.462 285.606,159.233 286.479,157.684 286.987 L 154.869 287.911 129.607 339.706 L 104.345 391.500 152.173 391.584 C 178.478 391.631,221.524 391.631,247.830 391.584 L 295.661 391.500 270.379 339.667 L 245.097 287.833 243.132 287.294 C 242.051 286.997,239.823 286.145,238.181 285.401 C 234.642 283.796,234.312 283.862,235.845 285.871 C 237.184 287.625,237.213 287.813,236.360 289.212 C 235.259 291.018,232.452 292.138,229.675 291.880 L 227.380 291.666 227.690 292.748 C 228.180 294.456,228.139 294.510,225.409 295.758 C 217.697 299.283,210.132 298.783,209.322 294.694 C 208.791 292.009,208.695 291.749,208.154 291.541 C 207.816 291.411,207.667 291.583,207.667 292.103 C 207.667 295.642,201.411 293.914,200.456 290.111 C 200.206 289.116,199.794 289.116,199.544 290.111 C 198.558 294.040,191.675 295.702,192.415 291.833 C 192.536 291.201,192.433 291.000,191.991 291.000 C 191.580 291.000,191.340 291.369,191.178 292.250 C 190.230 297.402,189.904 297.686,184.667 297.923 C 180.932 298.092,178.462 297.562,174.583 295.761 C 171.857 294.495,171.822 294.449,172.310 292.748 L 172.620 291.666 170.325 291.880 C 167.548 292.138,164.741 291.018,163.640 289.212 C 162.787 287.813,162.816 287.625,164.155 285.871 C 165.622 283.950,165.304 283.777,162.638 285.046 " stroke="none" fill="#0454bb" fill-rule="evenodd"></path><path id="path2" d="M195.084 148.833 C 195.088 149.567,195.156 149.827,195.236 149.413 C 195.315 148.998,195.312 148.398,195.229 148.079 C 195.146 147.761,195.080 148.100,195.084 148.833 M204.744 148.667 C 204.744 149.308,204.813 149.571,204.896 149.250 C 204.980 148.929,204.980 148.404,204.896 148.083 C 204.813 147.762,204.744 148.025,204.744 148.667 M192.925 269.578 C 193.709 269.648,194.909 269.647,195.592 269.576 C 196.275 269.504,195.633 269.446,194.167 269.448 C 192.700 269.449,192.141 269.507,192.925 269.578 " stroke="none" fill="#568172" fill-rule="evenodd"></path><path id="path3" d="M194.083 119.896 C 194.404 119.980,194.929 119.980,195.250 119.896 C 195.571 119.813,195.308 119.744,194.667 119.744 C 194.025 119.744,193.762 119.813,194.083 119.896 M204.750 119.896 C 205.071 119.980,205.596 119.980,205.917 119.896 C 206.237 119.813,205.975 119.744,205.333 119.744 C 204.692 119.744,204.429 119.813,204.750 119.896 M135.103 128.833 C 135.105 129.933,135.167 130.343,135.242 129.744 C 135.316 129.145,135.314 128.245,135.238 127.744 C 135.162 127.243,135.101 127.733,135.103 128.833 M264.770 128.833 C 264.772 129.933,264.834 130.343,264.908 129.744 C 264.982 129.145,264.981 128.245,264.905 127.744 C 264.829 127.243,264.768 127.733,264.770 128.833 M125.084 145.167 C 125.088 145.900,125.156 146.161,125.236 145.746 C 125.315 145.331,125.312 144.731,125.229 144.413 C 125.146 144.094,125.080 144.433,125.084 145.167 M274.751 145.167 C 274.754 145.900,274.823 146.161,274.902 145.746 C 274.982 145.331,274.979 144.731,274.896 144.413 C 274.812 144.094,274.747 144.433,274.751 145.167 M275.466 146.135 C 275.367 146.392,275.339 147.105,275.403 147.718 C 275.505 148.696,275.539 148.638,275.679 147.250 C 275.842 145.626,275.782 145.311,275.466 146.135 M124.424 147.333 C 124.424 148.158,124.489 148.496,124.569 148.083 C 124.648 147.671,124.648 146.996,124.569 146.583 C 124.489 146.171,124.424 146.508,124.424 147.333 M130.882 159.946 C 130.362 160.521,130.374 160.598,131.081 161.196 C 131.832 161.832,131.832 161.832,131.257 161.148 C 130.715 160.504,130.714 160.429,131.245 159.898 C 131.555 159.587,131.726 159.333,131.623 159.333 C 131.521 159.333,131.187 159.609,130.882 159.946 M268.755 159.898 C 269.286 160.429,269.285 160.504,268.743 161.148 C 268.168 161.832,268.168 161.832,268.919 161.196 C 269.628 160.596,269.260 159.333,268.377 159.333 C 268.274 159.333,268.445 159.587,268.755 159.898 M130.315 168.917 L 129.167 170.167 130.417 169.018 C 131.104 168.386,131.667 167.824,131.667 167.768 C 131.667 167.513,131.385 167.753,130.315 168.917 M120.751 195.833 C 120.754 196.567,120.823 196.827,120.902 196.413 C 120.982 195.998,120.979 195.398,120.896 195.079 C 120.812 194.761,120.747 195.100,120.751 195.833 M279.084 195.833 C 279.088 196.567,279.156 196.827,279.236 196.413 C 279.315 195.998,279.312 195.398,279.229 195.079 C 279.146 194.761,279.080 195.100,279.084 195.833 M151.667 262.771 C 151.667 262.853,152.217 263.341,152.890 263.854 C 153.563 264.368,154.009 264.617,153.880 264.409 C 153.617 263.983,151.667 262.540,151.667 262.771 M246.987 263.691 L 245.833 264.715 247.083 263.818 C 248.188 263.025,248.547 262.667,248.237 262.667 C 248.185 262.667,247.622 263.127,246.987 263.691 M178.333 269.500 C 178.955 270.142,179.539 270.667,179.631 270.667 C 179.722 270.667,179.289 270.142,178.667 269.500 C 178.045 268.858,177.461 268.333,177.369 268.333 C 177.278 268.333,177.711 268.858,178.333 269.500 M221.315 269.583 L 220.167 270.833 221.417 269.685 C 222.580 268.615,222.820 268.333,222.565 268.333 C 222.510 268.333,221.947 268.896,221.315 269.583 M188.243 269.574 C 188.834 269.648,189.884 269.649,190.576 269.577 C 191.267 269.504,190.783 269.444,189.500 269.443 C 188.217 269.441,187.651 269.500,188.243 269.574 M205.083 269.581 C 206.504 269.644,208.829 269.644,210.250 269.581 C 211.671 269.519,210.508 269.467,207.667 269.467 C 204.825 269.467,203.662 269.519,205.083 269.581 M142.120 270.175 C 142.665 270.490,143.198 270.602,143.365 270.435 C 143.532 270.268,143.409 270.133,143.079 270.120 C 142.760 270.107,142.200 269.990,141.833 269.860 C 141.467 269.730,141.596 269.872,142.120 270.175 M202.010 278.877 C 200.039 280.703,199.965 280.738,199.325 280.159 C 198.963 279.831,198.667 279.728,198.667 279.929 C 198.667 280.130,198.819 280.388,199.005 280.503 C 199.192 280.619,199.239 280.884,199.110 281.092 C 198.473 282.123,198.670 283.100,199.384 282.454 C 200.056 281.846,200.116 281.893,204.351 286.336 C 206.709 288.810,208.644 290.628,208.652 290.376 C 208.660 290.124,207.432 288.624,205.923 287.043 C 201.738 282.656,200.785 281.552,201.359 281.751 C 202.540 282.163,206.333 282.404,206.333 282.067 C 206.333 281.878,205.206 281.618,203.829 281.489 C 200.665 281.192,200.632 281.111,202.840 279.023 C 203.845 278.073,204.667 277.229,204.667 277.148 C 204.667 276.658,203.792 277.228,202.010 278.877 M168.587 291.902 C 169.002 291.982,169.602 291.979,169.921 291.896 C 170.239 291.812,169.900 291.747,169.167 291.751 C 168.433 291.754,168.173 291.823,168.587 291.902 M230.254 291.902 C 230.669 291.982,231.269 291.979,231.587 291.896 C 231.906 291.812,231.567 291.747,230.833 291.751 C 230.100 291.754,229.839 291.823,230.254 291.902 " stroke="none" fill="#6e804b" fill-rule="evenodd"></path><path id="path4" d="M196.781 181.167 C 196.782 182.633,196.841 183.192,196.911 182.408 C 196.982 181.624,196.981 180.424,196.909 179.741 C 196.837 179.059,196.780 179.700,196.781 181.167 M203.116 181.333 C 203.116 182.892,203.174 183.529,203.244 182.750 C 203.314 181.971,203.314 180.696,203.244 179.917 C 203.174 179.137,203.116 179.775,203.116 181.333 M174.812 200.417 L 173.833 201.500 174.917 200.521 C 175.512 199.983,176.000 199.495,176.000 199.438 C 176.000 199.180,175.725 199.407,174.812 200.417 M224.000 199.438 C 224.000 199.495,224.487 199.983,225.083 200.521 L 226.167 201.500 225.188 200.417 C 224.275 199.407,224.000 199.180,224.000 199.438 M182.411 230.000 C 182.411 230.642,182.479 230.904,182.563 230.583 C 182.647 230.262,182.647 229.737,182.563 229.417 C 182.479 229.096,182.411 229.358,182.411 230.000 M196.807 244.667 C 196.807 248.425,196.856 249.963,196.915 248.083 C 196.975 246.204,196.975 243.129,196.915 241.250 C 196.856 239.371,196.807 240.908,196.807 244.667 M203.141 244.667 C 203.141 248.425,203.189 249.963,203.249 248.083 C 203.308 246.204,203.308 243.129,203.249 241.250 C 203.189 239.371,203.141 240.908,203.141 244.667 " stroke="none" fill="#849c5c" fill-rule="evenodd"></path><path id="path5" d="M124.158 190.083 L 121.833 192.500 124.250 190.176 C 126.495 188.017,126.819 187.667,126.574 187.667 C 126.524 187.667,125.436 188.754,124.158 190.083 " stroke="none" fill="#36687c" fill-rule="evenodd"></path><path id="path6" d="M168.923 212.575 C 169.522 212.649,170.422 212.648,170.923 212.572 C 171.424 212.495,170.933 212.435,169.833 212.437 C 168.733 212.438,168.324 212.501,168.923 212.575 M229.256 212.575 C 229.855 212.649,230.755 212.648,231.256 212.572 C 231.757 212.495,231.267 212.435,230.167 212.437 C 229.067 212.438,228.657 212.501,229.256 212.575 " stroke="none" fill="#7c9c5d" fill-rule="evenodd"></path><path id="path7" d="M161.495 191.667 C 161.495 217.242,161.535 227.704,161.583 214.917 C 161.632 202.129,161.632 181.204,161.583 168.417 C 161.535 155.629,161.495 166.092,161.495 191.667 M238.495 191.667 C 238.495 217.242,238.535 227.704,238.583 214.917 C 238.632 202.129,238.632 181.204,238.583 168.417 C 238.535 155.629,238.495 166.092,238.495 191.667 M273.833 188.333 C 274.736 189.250,275.550 190.000,275.642 190.000 C 275.733 190.000,275.070 189.250,274.167 188.333 C 273.264 187.417,272.450 186.667,272.358 186.667 C 272.267 186.667,272.930 187.417,273.833 188.333 M277.500 192.000 C 278.216 192.733,278.877 193.333,278.969 193.333 C 279.060 193.333,278.549 192.733,277.833 192.000 C 277.117 191.267,276.456 190.667,276.365 190.667 C 276.273 190.667,276.784 191.267,277.500 192.000 M191.667 255.771 C 191.667 255.828,192.154 256.316,192.750 256.854 L 193.833 257.833 192.854 256.750 C 191.942 255.740,191.667 255.513,191.667 255.771 M207.146 256.750 L 206.167 257.833 207.250 256.854 C 207.846 256.316,208.333 255.828,208.333 255.771 C 208.333 255.513,208.058 255.740,207.146 256.750 " stroke="none" fill="#256999" fill-rule="evenodd"></path><path id="path8" d="M166.917 238.249 C 169.896 238.305,174.771 238.305,177.750 238.249 C 180.729 238.194,178.292 238.149,172.333 238.149 C 166.375 238.149,163.938 238.194,166.917 238.249 M191.429 238.247 C 192.490 238.313,194.140 238.312,195.096 238.245 C 196.051 238.178,195.183 238.124,193.167 238.125 C 191.150 238.125,190.368 238.180,191.429 238.247 M205.096 238.247 C 206.156 238.313,207.806 238.312,208.762 238.245 C 209.718 238.178,208.850 238.124,206.833 238.125 C 204.817 238.125,204.035 238.180,205.096 238.247 M222.250 238.249 C 225.229 238.305,230.104 238.305,233.083 238.249 C 236.063 238.194,233.625 238.149,227.667 238.149 C 221.708 238.149,219.271 238.194,222.250 238.249 " stroke="none" fill="#377490" fill-rule="evenodd"></path></g></svg>